<svg xmlns="http://www.w3.org/2000/svg" width="1280" height="280" viewBox="0 0 1280 280">
  <defs>
    <linearGradient id="accent" x1="0%" y1="0%" x2="100%" y2="100%">
      <stop offset="0%" stop-color="#f87171"/>
      <stop offset="100%" stop-color="#dc2626"/>
    </linearGradient>
    <radialGradient id="glow" cx="50%" cy="45%" r="50%">
      <stop offset="0%" stop-color="#f87171" stop-opacity="0.08"/>
      <stop offset="60%" stop-color="#f87171" stop-opacity="0.02"/>
      <stop offset="100%" stop-color="#f87171" stop-opacity="0"/>
    </radialGradient>
  </defs>

  <!-- Background -->
  <rect width="1280" height="280" fill="#0a0a0b" rx="6"/>

  <!-- Ambient glow -->
  <rect width="1280" height="280" fill="url(#glow)" rx="6"/>

  <!-- Subtle grid -->
  <g opacity="0.03" stroke="#fafafa" stroke-width="0.5">
    <line x1="320" y1="0" x2="320" y2="280"/>
    <line x1="640" y1="0" x2="640" y2="280"/>
    <line x1="960" y1="0" x2="960" y2="280"/>
    <line x1="0" y1="140" x2="1280" y2="140"/>
  </g>

  <!-- Lobster mascot -->
  <g transform="translate(395, 50) scale(1.4)">
    <path d="M60 10 C30 10 15 35 15 55 C15 75 30 95 45 100 L45 110 L55 110 L55 100 C55 100 60 102 65 100 L65 110 L75 110 L75 100 C90 95 105 75 105 55 C105 35 90 10 60 10Z" fill="url(#accent)" opacity="0.9"/>
    <path d="M20 45 C5 40 0 50 5 60 C10 70 20 65 25 55 C28 48 25 45 20 45Z" fill="url(#accent)" opacity="0.9"/>
    <path d="M100 45 C115 40 120 50 115 60 C110 70 100 65 95 55 C92 48 95 45 100 45Z" fill="url(#accent)" opacity="0.9"/>
    <path d="M45 15 Q35 5 30 8" stroke="#f87171" stroke-width="2" stroke-linecap="round" fill="none"/>
    <path d="M75 15 Q85 5 90 8" stroke="#f87171" stroke-width="2" stroke-linecap="round" fill="none"/>
    <path d="M30 32 L52 32 L52 42 Q52 46 48 46 L34 46 Q30 46 30 42 Z" fill="#0a0a0b"/>
    <path d="M68 32 L90 32 L90 42 Q90 46 86 46 L72 46 Q68 46 68 42 Z" fill="#0a0a0b"/>
    <path d="M52 36 L68 36" stroke="#0a0a0b" stroke-width="3"/>
    <rect x="32" y="34" width="6" height="2" fill="#fafafa" opacity="0.3" rx="1"/>
    <rect x="70" y="34" width="6" height="2" fill="#fafafa" opacity="0.3" rx="1"/>
  </g>

  <!-- Text -->
  <text x="620" y="115" font-family="Inter, -apple-system, BlinkMacSystemFont, 'Segoe UI', sans-serif" font-size="44" font-weight="700" fill="#fafafa" text-anchor="start">Your AI agent.</text>
  <text x="620" y="170" font-family="Inter, -apple-system, BlinkMacSystemFont, 'Segoe UI', sans-serif" font-size="44" font-weight="700" fill="url(#accent)" text-anchor="start">Live in seconds.</text>

  <!-- Trust signals -->
  <g transform="translate(620, 220)">
    <text font-family="Inter, -apple-system, BlinkMacSystemFont, 'Segoe UI', sans-serif" font-size="15" font-weight="500" fill="#71717a">
      <tspan>Open Source</tspan>
      <tspan dx="12" fill="#71717a" opacity="0.4">&#183;</tspan>
      <tspan dx="12">Kubernetes Native</tspan>
      <tspan dx="12" fill="#71717a" opacity="0.4">&#183;</tspan>
      <tspan dx="12">EU Infrastructure</tspan>
      <tspan dx="12" fill="#71717a" opacity="0.4">&#183;</tspan>
      <tspan dx="12">Always Online</tspan>
    </text>
  </g>

  <!-- Bottom accent line -->
  <rect x="0" y="274" width="1280" height="6" fill="url(#accent)" opacity="0.5" rx="0 0 6 6"/>
</svg>
